<svg xmlns="http://www.w3.org/2000/svg" viewBox="0 0 512 512">
  <defs>
    <linearGradient id="bamboo" x1="126" y1="400" x2="386" y2="140" gradientUnits="userSpaceOnUse">
      <stop offset="0" stop-color="#9c7a38"/>
      <stop offset=".45" stop-color="#d6b05b"/>
      <stop offset="1" stop-color="#f0d87b"/>
    </linearGradient>
  </defs>
  <rect width="512" height="512" rx="104" fill="#143a35"/>
  <path d="M58 408c88-32 161-30 232 6 56 28 111 31 164 9v89H58z" fill="#1f5d52"/>
  <path d="M128 414 390 152c11-11 28-11 39 0l14 14c11 11 11 28 0 39L181 467c-11 11-28 11-39 0l-14-14c-11-11-11-28 0-39z" fill="url(#bamboo)"/>
  <path d="M167 376 128 337M222 321l-39-39M277 266l-39-39M332 211l-39-39" stroke="#7b5c29" stroke-width="9" stroke-linecap="round"/>
  <circle cx="350" cy="204" r="13" fill="#17312b"/>
  <circle cx="300" cy="254" r="13" fill="#17312b"/>
  <circle cx="250" cy="304" r="13" fill="#17312b"/>
  <circle cx="200" cy="354" r="13" fill="#17312b"/>
  <path d="M357 135 412 80" stroke="#f0d87b" stroke-width="28" stroke-linecap="round"/>
  <path d="M369 122 424 67" stroke="#17312b" stroke-width="7" stroke-linecap="round"/>
  <circle cx="126" cy="429" r="34" fill="#f2df9a"/>
  <circle cx="126" cy="429" r="16" fill="#17312b"/>
</svg>
