<svg xmlns="http://www.w3.org/2000/svg" viewBox="0 0 512 512">
  <defs>
    <filter id="glow" x="-30%" y="-30%" width="160%" height="160%">
      <feGaussianBlur stdDeviation="7" result="blur"/>
      <feMerge>
        <feMergeNode in="blur"/>
        <feMergeNode in="SourceGraphic"/>
      </feMerge>
    </filter>
    <linearGradient id="tube" x1="123" y1="397" x2="389" y2="131" gradientUnits="userSpaceOnUse">
      <stop offset="0" stop-color="#3ee7c4"/>
      <stop offset=".55" stop-color="#e4d064"/>
      <stop offset="1" stop-color="#ff8b65"/>
    </linearGradient>
  </defs>
  <rect width="512" height="512" rx="104" fill="#07171d"/>
  <path d="M80 366c82-23 142-19 207 19 55 32 96 34 148 7" fill="none" stroke="#18424a" stroke-width="30" stroke-linecap="round"/>
  <path d="M128 399 384 143" fill="none" stroke="url(#tube)" stroke-width="40" stroke-linecap="round" filter="url(#glow)"/>
  <path d="M351 118 406 63" stroke="#ff8b65" stroke-width="28" stroke-linecap="round" filter="url(#glow)"/>
  <path d="M168 359 149 340M220 307l-19-19M272 255l-19-19M324 203l-19-19" stroke="#07171d" stroke-width="12" stroke-linecap="round"/>
  <circle cx="338" cy="189" r="11" fill="#07171d"/>
  <circle cx="286" cy="241" r="11" fill="#07171d"/>
  <circle cx="234" cy="293" r="11" fill="#07171d"/>
  <circle cx="182" cy="345" r="11" fill="#07171d"/>
  <path d="M112 414c29 6 52 29 58 58" fill="none" stroke="#3ee7c4" stroke-width="18" stroke-linecap="round" filter="url(#glow)"/>
  <circle cx="402" cy="107" r="12" fill="#3ee7c4" filter="url(#glow)"/>
</svg>
