<svg xmlns="http://www.w3.org/2000/svg" viewBox="0 0 512 512">
  <defs>
    <linearGradient id="bg5" x1="0" y1="0" x2="0" y2="512" gradientUnits="userSpaceOnUse">
      <stop offset="0" stop-color="#fff6e5"/>
      <stop offset="1" stop-color="#ccaa6d"/>
    </linearGradient>
    <linearGradient id="tube5" x1="184" y1="0" x2="328" y2="0" gradientUnits="userSpaceOnUse">
      <stop offset="0" stop-color="#4d2b0e"/>
      <stop offset=".14" stop-color="#86581e"/>
      <stop offset=".35" stop-color="#d19a42"/>
      <stop offset=".52" stop-color="#ffdda0"/>
      <stop offset=".68" stop-color="#c98b32"/>
      <stop offset=".86" stop-color="#704415"/>
      <stop offset="1" stop-color="#321a07"/>
    </linearGradient>
    <linearGradient id="inner5" x1="202" y1="0" x2="310" y2="0" gradientUnits="userSpaceOnUse">
      <stop offset="0" stop-color="#0a0401"/>
      <stop offset=".42" stop-color="#6d3d15"/>
      <stop offset=".58" stop-color="#e6aa53"/>
      <stop offset="1" stop-color="#080301"/>
    </linearGradient>
    <radialGradient id="hole5" cx="35%" cy="30%" r="70%">
      <stop offset="0" stop-color="#020100"/>
      <stop offset=".7" stop-color="#130803"/>
      <stop offset="1" stop-color="#8b5620"/>
    </radialGradient>
    <filter id="shadow5" x="-50%" y="-20%" width="200%" height="150%">
      <feDropShadow dx="0" dy="18" stdDeviation="15" flood-color="#2d1a0a" flood-opacity=".30"/>
    </filter>
    <clipPath id="tubeClip5">
      <rect x="188" y="46" width="136" height="454" rx="68"/>
    </clipPath>
  </defs>
  <rect width="512" height="512" rx="96" fill="url(#bg5)"/>
  <path d="M63 421c68-31 127-36 191-12c75 28 137 17 199-31" fill="none" stroke="#bd985d" stroke-width="38" stroke-linecap="round" opacity=".28"/>
  <g filter="url(#shadow5)">
    <rect x="188" y="46" width="136" height="454" rx="68" fill="url(#tube5)"/>
    <g clip-path="url(#tubeClip5)">
      <path d="M188 137c31 14 105 14 136 0M188 205c31 13 105 13 136 0M188 273c31 12 105 12 136 0M188 341c31 12 105 12 136 0M188 409c31 12 105 12 136 0" fill="none" stroke="#f1cc76" stroke-width="10" stroke-linecap="round" opacity=".58"/>
      <path d="M206 68c-7 116-5 245 5 404" stroke="#4d2b0e" stroke-width="8" stroke-linecap="round" opacity=".28" fill="none"/>
      <path d="M250 62c10 123 10 262 1 409" stroke="#fff0b3" stroke-width="10" stroke-linecap="round" opacity=".18" fill="none"/>
      <path d="M308 69c-5 121-2 255 9 398" stroke="#321a07" stroke-width="8" stroke-linecap="round" opacity=".25" fill="none"/>
    </g>
    <path d="M210 83c23-28 69-28 92 0c-5 31-21 55-46 68c-25-13-41-37-46-68z" fill="url(#inner5)"/>
    <path d="M228 73c18-11 38-11 56 0c-6 28-15 47-28 61c-13-14-22-33-28-61z" fill="#120803"/>
    <path d="M239 79c7 22 13 35 17 42c4-7 10-20 17-42" fill="none" stroke="#e9b763" stroke-width="7" stroke-linecap="round"/>
    <path d="M211 84c25 16 65 16 90 0" fill="none" stroke="#2a1505" stroke-width="8" stroke-linecap="round" opacity=".68"/>
    <ellipse cx="256" cy="213" rx="18" ry="21" fill="#9e6325"/>
    <ellipse cx="256" cy="213" rx="13" ry="16" fill="url(#hole5)"/>
    <ellipse cx="256" cy="284" rx="18" ry="21" fill="#9e6325"/>
    <ellipse cx="256" cy="284" rx="13" ry="16" fill="url(#hole5)"/>
    <ellipse cx="256" cy="355" rx="18" ry="21" fill="#9e6325"/>
    <ellipse cx="256" cy="355" rx="13" ry="16" fill="url(#hole5)"/>
  </g>
</svg>
