<svg xmlns="http://www.w3.org/2000/svg" viewBox="0 0 512 512">
  <rect width="512" height="512" rx="96" fill="#f7f3ea"/>
  <path d="M74 428h364" stroke="#d8cab4" stroke-width="20" stroke-linecap="round"/>
  <path d="M223 66c0-18 13-29 33-29s33 11 33 29l16 362c1 25-17 43-49 43s-50-18-49-43z" fill="#f7f3ea" stroke="#193832" stroke-width="17" stroke-linejoin="round"/>
  <path d="M237 47c3 31 35 31 38 0" fill="none" stroke="#193832" stroke-width="13" stroke-linecap="round"/>
  <path d="M242 51c5 17 23 17 28 0" fill="none" stroke="#c17c33" stroke-width="6" stroke-linecap="round"/>
  <path d="M223 111c20 9 46 9 66 0M225 158c19 8 43 8 62 0M227 205c18 8 40 8 58 0M229 252c17 7 37 7 54 0M231 299c16 7 34 7 50 0M233 346c15 6 31 6 46 0M235 393c14 6 27 6 41 0" fill="none" stroke="#193832" stroke-width="8" stroke-linecap="round"/>
  <circle cx="256" cy="181" r="15" fill="#193832"/>
  <circle cx="256" cy="226" r="15" fill="#193832"/>
  <circle cx="256" cy="271" r="15" fill="#193832"/>
  <circle cx="256" cy="316" r="15" fill="#193832"/>
  <circle cx="256" cy="361" r="15" fill="#193832"/>
  <path d="M199 223c-18 0-31 13-31 31" fill="none" stroke="#c17c33" stroke-width="8" stroke-linecap="round"/>
  <circle cx="222" cy="226" r="7" fill="#c17c33"/>
  <text x="136" y="290" fill="#8b6c45" font-size="18" font-family="serif">背孔</text>
  <circle cx="241" cy="419" r="8" fill="#193832"/>
  <circle cx="271" cy="419" r="8" fill="#193832"/>
  <path d="M305 419c23 0 39 15 39 37" fill="none" stroke="#c17c33" stroke-width="8" stroke-linecap="round"/>
  <text x="350" y="463" fill="#8b6c45" font-size="18" font-family="serif">出音孔</text>
  <path d="M256 456v45M240 466l-22 31M272 466l22 31" stroke="#193832" stroke-width="8" stroke-linecap="round"/>
  <circle cx="256" cy="456" r="9" fill="#c17c33"/>
</svg>
